<svg width="128" height="128" viewBox="0 0 128 128" fill="none" xmlns="http://www.w3.org/2000/svg">
<path d="M64 128C99.3462 128 128 99.3462 128 64C128 28.6538 99.3462 0 64 0C28.6538 0 0 28.6538 0 64C0 99.3462 28.6538 128 64 128Z" fill="#914DFF"/>
<path d="M128 64C128 28.7103 99.2897 0 64 0V128C99.2897 128 128 99.2897 128 64Z" fill="#6536B1"/>
<path d="M64 112.75C37.12 112.75 15.25 90.88 15.25 64C15.25 37.12 37.12 15.25 64 15.25C90.88 15.25 112.75 37.12 112.75 64C112.75 90.88 90.88 112.75 64 112.75Z" fill="#753DD0"/>
<path d="M112.75 64C112.75 37.12 90.88 15.25 64 15.25V112.75C90.88 112.75 112.75 90.88 112.75 64Z" fill="#401F75"/>
<path d="M41.3242 85.916C40.3763 85.916 39.5469 85.8737 38.8359 85.7891C38.125 85.7044 37.4564 85.5013 36.8301 85.1797C35.1882 84.3841 34.3672 82.793 34.3672 80.4062C34.3672 79.2552 34.5449 77.8757 34.9004 76.2676C35.2728 74.6595 35.7975 72.9245 36.4746 71.0625C37.9642 66.9661 39.8092 63.0306 42.0098 59.2559C40.2832 59.3574 38.9121 59.6198 37.8965 60.043C36.8978 60.4492 36.2376 61.084 35.916 61.9473C36.0684 61.9473 36.2207 62.125 36.373 62.4805C36.5254 62.8359 36.6016 63.1999 36.6016 63.5723C36.6016 64.1816 36.3223 64.6725 35.7637 65.0449C35.2051 65.4173 34.5111 65.6035 33.6816 65.6035C32.7507 65.6035 31.9889 65.3496 31.3965 64.8418C30.7702 64.3171 30.457 63.5638 30.457 62.582C30.457 61.7188 30.7194 60.8978 31.2441 60.1191C31.7689 59.3236 32.5137 58.638 33.4785 58.0625C34.4603 57.4701 35.5944 57.013 36.8809 56.6914C38.1842 56.3529 39.5807 56.1836 41.0703 56.1836C41.7982 56.1836 42.7038 56.2344 43.7871 56.3359C46.6986 51.7487 49.61 48.1517 52.5215 45.5449C55.9069 42.515 59.0215 41 61.8652 41C63.5579 41 64.929 41.2454 65.9785 41.7363L57.8281 80H50.3379L54.3242 61.1348C53.0716 60.5592 51.8952 60.1276 50.7949 59.8398C49.7116 59.5521 48.569 59.3574 47.3672 59.2559C45.4036 63.5046 43.7956 67.8464 42.543 72.2812C41.2565 76.7331 40.6133 80.3132 40.6133 83.0215C40.6133 84.3587 40.8503 85.3236 41.3242 85.916ZM57.8281 44.6816C56.3216 45.4941 54.7389 47.026 53.0801 49.2773C51.4551 51.5117 49.9147 54.0931 48.459 57.0215C50.8288 57.4785 52.9447 58.0794 54.8066 58.8242L57.8281 44.6816ZM83.498 43.8184C82.9733 43.8184 82.2878 43.793 81.4414 43.7422C80.3242 43.7083 79.4525 43.6914 78.8262 43.6914C77.3874 43.6914 76.2871 43.7676 75.5254 43.9199C74.5436 44.123 74.0527 44.4362 74.0527 44.8594C74.2389 44.8594 74.4336 44.9779 74.6367 45.2148C74.8229 45.4518 74.916 45.8835 74.916 46.5098C74.916 47.5254 74.5605 48.304 73.8496 48.8457C73.291 49.2689 72.6309 49.4805 71.8691 49.4805C70.9382 49.4805 70.2441 49.1504 69.7871 48.4902C69.3978 47.9655 69.2031 47.2715 69.2031 46.4082C69.2031 45.748 69.347 45.0964 69.6348 44.4531C69.9225 43.8099 70.3288 43.2259 70.8535 42.7012C72.0384 41.5671 73.6211 41 75.6016 41H93.4258L75.5 76.623C75.9062 76.623 76.7018 76.64 77.8867 76.6738C79.0716 76.7077 79.9434 76.7246 80.502 76.7246C82.0254 76.7246 83.151 76.6569 83.8789 76.5215C84.4036 76.4199 84.8353 76.3014 85.1738 76.166C85.5124 76.0137 85.7578 75.819 85.9102 75.582C85.724 75.582 85.5208 75.472 85.3008 75.252C85.0807 75.0319 84.9707 74.6003 84.9707 73.957C84.9707 72.9414 85.3177 72.1628 86.0117 71.6211C86.5365 71.181 87.2305 70.9609 88.0938 70.9609C88.974 70.9609 89.6595 71.2741 90.1504 71.9004C90.5397 72.4421 90.7344 73.1276 90.7344 73.957C90.7344 74.6341 90.5736 75.3281 90.252 76.0391C89.9473 76.75 89.5156 77.3932 88.957 77.9688C88.3477 78.5951 87.6283 79.0944 86.7988 79.4668C85.9694 79.8223 85.0638 80 84.082 80H65.3184L83.498 43.8184Z" fill="#C4A0FF"/>
</svg>
