<svg width="128" height="128" viewBox="0 0 128 128" fill="none" xmlns="http://www.w3.org/2000/svg">
<g clip-path="url(#clip0)">
<path d="M0 34.3892L60.2537 0.969924C62.5843 -0.322576 65.4157 -0.322576 67.746 0.969924L128 34.3892H0Z" fill="#AEE69C"/>
<path d="M67.7463 0.969558C65.4161 -0.322942 62.5843 -0.322942 60.2541 0.969558L59.1068 1.60581L118.214 34.3891H128L67.7463 0.969558Z" fill="#89DAA4"/>
<path d="M64 25.5761C67.8405 25.5761 70.9538 22.4613 70.9538 18.6191C70.9538 14.7769 67.8405 11.6621 64 11.6621C60.1596 11.6621 57.0463 14.7769 57.0463 18.6191C57.0463 22.4613 60.1596 25.5761 64 25.5761Z" fill="#3D6D93"/>
<path d="M64 11.6621C62.5702 11.6621 61.2417 12.0944 60.1367 12.8344C62 14.0824 63.2272 16.2071 63.2272 18.6191C63.2272 21.0311 62 23.1556 60.1367 24.4038C61.2417 25.1441 62.5702 25.5761 64 25.5761C67.8405 25.5761 70.9537 22.4613 70.9537 18.6191C70.9537 14.7769 67.8405 11.6621 64 11.6621Z" fill="#335E80"/>
<path d="M120.274 116.405H89.3035L97.0297 105.524H112.547L120.274 116.405Z" fill="#AEE69C"/>
<path d="M112.547 105.524H104.821L112.547 116.405H120.274L112.547 105.524Z" fill="#89DAA4"/>
<path d="M120.274 45.9838H89.3035L97.0297 56.8645H112.547L120.274 45.9838Z" fill="#AEE69C"/>
<path d="M112.547 45.9838L104.821 56.8645H112.547L120.274 45.9838H112.547Z" fill="#89DAA4"/>
<path d="M97.0297 56.8644H112.547V105.524H97.0297V56.8644Z" fill="#EAF6FF"/>
<path d="M104.821 56.8644H112.547V105.524H104.821V56.8644Z" fill="#D8ECFE"/>
<path d="M38.6964 116.405H7.72614L15.4526 105.524H30.9701L38.6964 116.405Z" fill="#AEE69C"/>
<path d="M38.6964 45.9838H7.72614L15.4526 56.8645H30.9701L38.6964 45.9838Z" fill="#AEE69C"/>
<path d="M15.4527 56.8644H30.9702V105.524H15.4527V56.8644Z" fill="#EAF6FF"/>
<path d="M30.9702 105.524H23.2437L30.9702 116.405H38.6964L30.9702 105.524Z" fill="#89DAA4"/>
<path d="M30.9702 45.9838L23.2437 56.8645H30.9702L38.6964 45.9838H30.9702Z" fill="#89DAA4"/>
<path d="M23.2437 56.8644H30.97V105.524H23.2437V56.8644Z" fill="#D8ECFE"/>
<path d="M0 34.3889H128V40.1864C128 43.3881 125.406 45.9839 122.205 45.9839H5.79475C2.5945 45.9839 0 43.3884 0 40.1864L0 34.3889Z" fill="#3D6D93"/>
<path d="M120.274 34.3889V40.1864C120.274 43.3884 117.679 45.9839 114.479 45.9839H122.205C125.405 45.9839 128 43.3884 128 40.1864V34.3889H120.274Z" fill="#335E80"/>
<path d="M2.5755 116.405H125.424C126.847 116.405 128 117.559 128 118.982V125.424C128 126.847 126.847 128 125.424 128H2.5755C1.153 128 0 126.847 0 125.423V118.982C0 117.559 1.153 116.405 2.5755 116.405Z" fill="#3D6D93"/>
<path d="M125.425 116.405H117.698C119.121 116.405 120.274 117.559 120.274 118.982V125.424C120.274 126.847 119.121 128 117.698 128H125.425C126.847 128 128 126.847 128 125.424V118.982C128 117.559 126.847 116.405 125.425 116.405Z" fill="#335E80"/>
<path d="M64 100.035C83.8823 100.035 100 83.9093 100 64.0174C100 44.1256 83.8823 28 64 28C44.1177 28 28 44.1256 28 64.0174C28 83.9093 44.1177 100.035 64 100.035Z" fill="#FFE179"/>
<path d="M63.9998 28C61.6444 28 59.3446 28.2334 57.1152 28.6656C73.7032 31.8805 86.2311 46.4819 86.2311 64.0174C86.2311 81.553 73.7032 96.1544 57.1152 99.3693C59.3442 99.8014 61.6444 100.035 63.9998 100.035C83.8823 100.035 99.9998 83.9094 99.9998 64.0174C99.9998 44.1255 83.8823 28 63.9998 28Z" fill="#FBD268"/>
<path d="M68.184 60.5731H67.4422V48.6225H68.1844C69.7205 48.6225 71.0183 50.2808 71.0183 52.2433C71.0183 54.1452 72.5594 55.6871 74.4604 55.6871C76.3614 55.6871 77.9025 54.1452 77.9025 52.2433C77.9025 46.4489 73.5426 41.7348 68.184 41.7348H67.4417V39.8303C67.4417 37.9284 65.9007 36.3864 63.9997 36.3864C62.0986 36.3864 60.5576 37.9284 60.5576 39.8303V41.7348H59.8158C54.4567 41.7348 50.0973 46.4489 50.0973 52.2433V56.9528C50.0973 62.7472 54.4571 67.4612 59.8158 67.4612H60.5576V79.4118H59.8158C58.2797 79.4118 56.9814 77.7536 56.9814 75.7911C56.9814 73.8892 55.4404 72.3472 53.5394 72.3472C51.6383 72.3472 50.0973 73.8892 50.0973 75.7911C50.0973 81.5855 54.4571 86.2995 59.8158 86.2995H60.5576V88.2041C60.5576 90.106 62.0986 91.6479 63.9997 91.6479C65.9011 91.6479 67.4417 90.106 67.4417 88.2041V86.2995H68.184C73.5426 86.2995 77.9025 81.5855 77.9025 75.7911V71.0815C77.9029 65.2871 73.5435 60.5731 68.184 60.5731ZM59.8158 60.5735C58.2797 60.5735 56.9814 58.9153 56.9814 56.9528V52.2433C56.9814 50.2808 58.2792 48.6225 59.8158 48.6225H60.5576V60.5731H59.8158V60.5735ZM71.0188 75.7911C71.0188 77.7536 69.721 79.4118 68.1848 79.4118H67.4426V67.4608H68.1844C69.721 67.4608 71.0188 69.119 71.0188 71.0815V75.7911Z" fill="white"/>
</g>
<defs>
<clipPath id="clip0">
<rect width="128" height="128" fill="white"/>
</clipPath>
</defs>
</svg>
