<svg width="128" height="128" viewBox="0 0 128 128" fill="none" xmlns="http://www.w3.org/2000/svg">
<path d="M128 64C128 81.095 121.342 97.1675 109.255 109.255C97.1675 121.342 81.095 128 64 128C46.905 128 30.8325 121.342 18.745 109.255C6.6575 97.1675 0 81.095 0 64C0 46.905 6.6575 30.8325 18.745 18.745C30.8325 6.6575 46.905 0 64 0C81.095 0 97.1675 6.6575 109.255 18.745C121.342 30.8325 128 46.905 128 64Z" fill="#2D5CA3"/>
<path d="M128 64C128 81.095 121.342 97.1675 109.255 109.255C97.1675 121.342 81.095 128 64 128V0C81.095 0 97.1675 6.6575 109.255 18.745C121.342 30.8325 128 46.905 128 64Z" fill="#5280C4"/>
<path d="M64 114.5C91.8904 114.5 114.5 91.8904 114.5 64C114.5 36.1096 91.8904 13.5 64 13.5C36.1096 13.5 13.5 36.1096 13.5 64C13.5 91.8904 36.1096 114.5 64 114.5Z" fill="#4D79BA"/>
<path d="M114.5 64C114.5 91.845 91.845 114.5 64 114.5V13.5C91.845 13.5 114.5 36.155 114.5 64Z" fill="#6197E8"/>
<path d="M83.1875 63.22C82.3475 62.38 81.4325 61.645 80.46 61.015C82.7575 58.4375 84.16 55.0425 84.16 51.3225C84.16 47.4425 82.64 43.7825 79.8825 41.025C77.1225 38.265 73.465 36.745 69.5825 36.745H67.75V29.5H60.25V36.745H43.74V44.245H49.865V83.755H43.74V91.255H60.25V98.5H67.75V91.255H71.5825C80.64 91.255 88.01 83.885 88.01 74.8275C88.01 70.4525 86.2975 66.33 83.1875 63.22ZM57.365 44.245H69.5825C71.4625 44.245 73.235 44.985 74.5775 46.3275C75.92 47.67 76.66 49.445 76.66 51.3225C76.66 55.1875 73.5475 58.3375 69.6975 58.3975H57.365V44.245ZM71.5825 83.755H57.365V65.9025L64 65.9L71.5825 65.8975C73.9525 65.8975 76.1925 66.83 77.885 68.525C79.5775 70.2175 80.51 72.455 80.51 74.8275C80.51 79.75 76.505 83.755 71.5825 83.755Z" fill="#A6C9FF"/>
<path d="M88.01 74.8275C88.01 83.885 80.64 91.255 71.5825 91.255H67.75V98.5H64V83.755H71.5825C76.505 83.755 80.51 79.75 80.51 74.8275C80.51 72.455 79.5775 70.2175 77.885 68.525C76.1925 66.83 73.9525 65.8975 71.5825 65.8975L64 65.9V58.3975H69.6975C73.5475 58.3375 76.66 55.1875 76.66 51.3225C76.66 49.445 75.92 47.67 74.5775 46.3275C73.235 44.985 71.4625 44.245 69.5825 44.245H64V29.5H67.75V36.745H69.5825C73.465 36.745 77.1225 38.265 79.8825 41.025C82.64 43.7825 84.16 47.4425 84.16 51.3225C84.16 55.0425 82.7575 58.4375 80.46 61.015C81.4325 61.645 82.3475 62.38 83.1875 63.22C86.2975 66.33 88.01 70.4525 88.01 74.8275Z" fill="#91BAF9"/>
</svg>
