<svg width="128" height="149" viewBox="0 0 128 149" fill="none" xmlns="http://www.w3.org/2000/svg">
<path d="M7.5 139.971V26.9191L120.5 9.26287V48.4999V125.405L7.5 139.971Z" stroke="#C12B2C" stroke-width="15"/>
<g clip-path="url(#clip0)">
<path d="M51.6097 103.591C51.6009 103.6 51.5902 103.61 51.5794 103.619L52.7774 110.441L59.598 111.637C59.6082 111.628 59.6166 111.618 59.6268 111.607L58.3247 104.894L51.6097 103.591Z" fill="white"/>
<path d="M112.014 51.2036C85.5411 24.7321 70.347 38.3338 67.8949 47.5675C66.7229 51.9803 66.8352 53.8145 66.8352 53.8145C62.8558 51.8552 52.6991 49.1012 43.9771 81.1089L25.2179 104.204C29.4221 111.46 34.2445 117.805 39.8282 123.39C45.4124 128.972 51.7592 133.796 59.0132 138L82.1078 119.241C89.6022 115.759 101.785 114.38 109.574 106.589C125.542 90.6198 135.976 75.1648 112.014 51.2036ZM74.5963 108.034C73.0219 109.607 70.4706 109.607 68.8968 108.034C68.5245 107.662 68.2423 107.233 68.0471 106.776L63.1235 105.822L64.0768 110.745C64.5332 110.944 64.9623 111.225 65.3344 111.597C66.9088 113.171 66.9088 115.722 65.3344 117.297C63.7603 118.871 61.2093 118.871 59.6352 117.297C59.2803 116.942 59.0106 116.536 58.8157 116.103L53.6114 115.192L54.5242 120.395C54.9562 120.589 55.3626 120.859 55.7173 121.215C57.2911 122.788 57.2911 125.34 55.717 126.914C54.1429 128.488 51.5916 128.488 50.0178 126.914C48.4437 125.34 48.4437 122.788 50.0178 121.215C50.0309 121.2 50.046 121.19 50.0594 121.176L48.862 114.356L42.0408 113.158C42.0283 113.172 42.0167 113.186 42.0036 113.2C40.4292 114.774 37.8782 114.774 36.3038 113.2C34.73 111.626 34.7297 109.074 36.3038 107.501C37.8782 105.927 40.4292 105.927 42.0036 107.501C42.3585 107.854 42.6287 108.261 42.8228 108.693L48.0286 109.607L47.1139 104.402C46.6825 104.208 46.2767 103.936 45.9218 103.582C44.3483 102.009 44.3474 99.457 45.9218 97.8829C47.4959 96.3091 50.0472 96.3091 51.621 97.8829C51.9942 98.2556 52.2755 98.6826 52.4716 99.1414L57.3955 100.094L56.4407 95.1717C55.9843 94.9741 55.5561 94.6928 55.1829 94.3196C53.6093 92.7452 53.6096 90.194 55.1829 88.6201C56.7567 87.0457 59.3082 87.0463 60.882 88.6201C62.4529 90.1913 62.4555 92.7347 60.8919 94.3097L62.1931 101.023L68.9076 102.326C70.4826 100.761 73.0263 100.766 74.5963 102.334C76.1698 103.908 76.1701 106.459 74.5963 108.034Z" fill="white"/>
<path d="M33.4104 87.6522L31.7031 85.4524L25.1245 87.3244C25.1207 87.3389 25.1149 87.3506 25.1111 87.3651L29.2033 92.8316L33.4104 87.6522Z" fill="white"/>
<path d="M18.3208 95.1529C18.7979 95.3091 19.2217 95.5485 19.5914 95.8473L24.6463 94.3093L21.4797 90.0795C21.0073 90.1004 20.5229 90.0443 20.0458 89.8869C17.9307 89.1936 16.7778 86.9182 17.4707 84.8024C18.164 82.6866 20.44 81.5335 22.5555 82.2273C23.0556 82.3911 23.5015 82.6474 23.8823 82.965L28.7053 81.5911L25.6301 77.6309C25.1347 77.6624 24.6244 77.6056 24.1241 77.441C22.0089 76.748 20.8563 74.472 21.5493 72.3562C22.2425 70.241 24.5186 69.089 26.6337 69.7811C28.7428 70.4711 29.8951 72.7393 29.2118 74.8507L33.4067 80.2546L39.9841 78.3803C40.1895 77.7627 40.5322 77.2312 40.9642 76.8001C44.6726 64.6311 48.5813 57.9888 48.5813 57.9888C48.5813 57.9888 44.5473 47.2101 32.259 52.0098C46.8091 45.1162 36.2401 34.0887 36.2401 34.0887C36.2401 34.0887 48.7523 43.6145 60.8407 48.8113C61.4368 48.7223 62.0393 48.6728 62.649 48.6728C62.9085 48.6728 63.1668 48.681 63.4251 48.6978C63.5694 48.0386 63.744 47.3143 63.9546 46.5204C65.6401 40.1748 71.4024 33.4045 80.3932 31.9581C77.4041 25.2515 70.2612 18.1857 55.3423 13.2979C23.1402 2.74721 14.0665 19.0401 7.03413 40.4977C3.6049 50.9678 7.87718 62.4592 8.15819 70.7184L1.85742 99.7958C8.88575 104.368 16.0537 107.85 23.5583 110.309C23.8116 110.393 24.0662 110.471 24.3204 110.552C23.4212 109.155 22.545 107.722 21.6903 106.246L20.2815 103.815L23.9911 99.2474L20.9101 100.184C20.904 100.201 20.9017 100.22 20.8956 100.237C20.2024 102.353 17.9263 103.505 15.8105 102.812C13.6956 102.119 12.5428 99.8432 13.236 97.7277C13.9286 95.6117 16.2056 94.4585 18.3208 95.1529Z" fill="white"/>
</g>
<defs>
<clipPath id="clip0">
<rect width="128" height="128" fill="white" transform="translate(0 10)"/>
</clipPath>
</defs>
</svg>
