<svg width="128" height="128" viewBox="0 0 128 128" fill="none" xmlns="http://www.w3.org/2000/svg">
<path d="M64 128C99.3462 128 128 99.3462 128 64C128 28.6538 99.3462 0 64 0C28.6538 0 0 28.6538 0 64C0 99.3462 28.6538 128 64 128Z" fill="#FFE14D"/>
<path d="M128 64C128 28.7103 99.2897 0 64 0V128C99.2897 128 128 99.2897 128 64Z" fill="#FFBB33"/>
<path d="M64 112.75C37.12 112.75 15.25 90.88 15.25 64C15.25 37.12 37.12 15.25 64 15.25C90.88 15.25 112.75 37.12 112.75 64C112.75 90.88 90.88 112.75 64 112.75Z" fill="#FFBB33"/>
<path d="M112.75 64C112.75 37.12 90.88 15.25 64 15.25V112.75C90.88 112.75 112.75 90.88 112.75 64Z" fill="#E68A2E"/>
<path d="M67.75 60.517V45.6905C72.063 46.7488 75.25 49.5238 75.25 52.7135C75.25 54.7863 76.9272 56.4635 79 56.4635C81.0728 56.4635 82.75 54.7863 82.75 52.7135C82.75 45.468 76.2998 39.41 67.75 38.017V33.9635C67.75 31.8908 66.0728 30.2135 64 30.2135C61.9272 30.2135 60.25 31.8908 60.25 33.9635V38.017C51.7002 39.41 45.25 45.468 45.25 52.7135C45.25 59.959 51.7002 66.017 60.25 67.41V82.2365C55.937 81.1783 52.75 78.4033 52.75 75.2135C52.75 73.1408 51.0728 71.4635 49 71.4635C46.9272 71.4635 45.25 73.1408 45.25 75.2135C45.25 82.459 51.7002 88.517 60.25 89.91V94C60.25 96.0728 61.9272 97.75 64 97.75C66.0728 97.75 67.75 96.0728 67.75 94V89.91C76.2998 88.517 82.75 82.459 82.75 75.2135C82.75 67.968 76.2998 61.9097 67.75 60.517ZM52.75 52.7135C52.75 49.5238 55.937 46.7488 60.25 45.6905V59.7365C55.937 58.678 52.75 55.903 52.75 52.7135ZM67.75 82.2365V68.1905C72.063 69.2487 75.25 72.0238 75.25 75.2135C75.25 78.4033 72.063 81.178 67.75 82.2365Z" fill="#FFE14D"/>
<path d="M67.75 94V89.91C76.2998 88.517 82.75 82.459 82.75 75.2135C82.75 67.968 76.2998 61.91 67.75 60.517V45.6905C72.063 46.7488 75.25 49.5238 75.25 52.7135C75.25 54.7863 76.9272 56.4635 79 56.4635C81.0728 56.4635 82.75 54.7863 82.75 52.7135C82.75 45.468 76.2998 39.41 67.75 38.017V33.9635C67.75 31.8908 66.0728 30.2135 64 30.2135V97.75C66.0728 97.75 67.75 96.0728 67.75 94ZM67.75 68.1902C72.063 69.2485 75.25 72.0235 75.25 75.2132C75.25 78.403 72.063 81.178 67.75 82.2363V68.1902Z" fill="#FFBB33"/>
</svg>
