<svg width="128" height="128" viewBox="0 0 128 128" fill="none" xmlns="http://www.w3.org/2000/svg">
<g clip-path="url(#clip0)">
<path d="M0 34.3891L60.2537 0.969863C62.5843 -0.322637 65.4157 -0.322637 67.746 0.969863L128 34.3891H0Z" fill="#AEE69C"/>
<path d="M67.7463 0.969558C65.4161 -0.322942 62.5843 -0.322942 60.2541 0.969558L59.1068 1.60581L118.214 34.3891H128L67.7463 0.969558Z" fill="#89DAA4"/>
<path d="M64 25.5761C67.8405 25.5761 70.9538 22.4613 70.9538 18.6191C70.9538 14.7769 67.8405 11.6621 64 11.6621C60.1596 11.6621 57.0463 14.7769 57.0463 18.6191C57.0463 22.4613 60.1596 25.5761 64 25.5761Z" fill="#3D6D93"/>
<path d="M64 11.6621C62.5702 11.6621 61.2417 12.0944 60.1367 12.8344C62 14.0824 63.2272 16.2071 63.2272 18.6191C63.2272 21.0311 62 23.1556 60.1367 24.4038C61.2417 25.1441 62.5702 25.5761 64 25.5761C67.8405 25.5761 70.9537 22.4613 70.9537 18.6191C70.9537 14.7769 67.8405 11.6621 64 11.6621Z" fill="#335E80"/>
<path d="M120.274 116.405H89.3035L97.0297 105.525H112.547L120.274 116.405Z" fill="#AEE69C"/>
<path d="M112.547 105.525H104.821L112.547 116.405H120.274L112.547 105.525Z" fill="#89DAA4"/>
<path d="M120.274 45.9838H89.3035L97.0297 56.8645H112.547L120.274 45.9838Z" fill="#AEE69C"/>
<path d="M112.547 45.9838L104.821 56.8645H112.547L120.274 45.9838H112.547Z" fill="#89DAA4"/>
<path d="M97.0297 56.8645H112.547V105.524H97.0297V56.8645Z" fill="#EAF6FF"/>
<path d="M104.821 56.8645H112.547V105.524H104.821V56.8645Z" fill="#D8ECFE"/>
<path d="M38.6964 116.405H7.72614L15.4526 105.524H30.9701L38.6964 116.405Z" fill="#AEE69C"/>
<path d="M38.6964 45.9838H7.72614L15.4526 56.8645H30.9701L38.6964 45.9838Z" fill="#AEE69C"/>
<path d="M15.4527 56.8644H30.9702V105.524H15.4527V56.8644Z" fill="#EAF6FF"/>
<path d="M30.9702 105.524H23.2437L30.9702 116.405H38.6964L30.9702 105.524Z" fill="#89DAA4"/>
<path d="M30.9702 45.9838L23.2437 56.8645H30.9702L38.6964 45.9838H30.9702Z" fill="#89DAA4"/>
<path d="M23.2437 56.8644H30.9699V105.524H23.2437V56.8644Z" fill="#D8ECFE"/>
<path d="M0 34.3888H128V40.1863C128 43.3881 125.406 45.9838 122.205 45.9838H5.79475C2.5945 45.9838 0 43.3883 0 40.1863L0 34.3888Z" fill="#3D6D93"/>
<path d="M120.274 34.3888V40.1863C120.274 43.3883 117.679 45.9838 114.479 45.9838H122.205C125.405 45.9838 128 43.3883 128 40.1863V34.3888H120.274Z" fill="#335E80"/>
<path d="M2.5755 116.405H125.424C126.847 116.405 128 117.559 128 118.982V125.424C128 126.847 126.847 128 125.424 128H2.5755C1.153 128 0 126.847 0 125.423V118.982C0 117.559 1.153 116.405 2.5755 116.405Z" fill="#3D6D93"/>
<path d="M125.425 116.405H117.698C119.121 116.405 120.274 117.559 120.274 118.982V125.424C120.274 126.847 119.121 128 117.698 128H125.425C126.847 128 128 126.847 128 125.424V118.982C128 117.559 126.847 116.405 125.425 116.405Z" fill="#335E80"/>
<path d="M46 73C46 74.1935 46.4741 75.3381 47.318 76.182C48.1619 77.0259 49.3065 77.5 50.5 77.5H52.75V56.125H46V73Z" fill="#E0B999"/>
<path d="M34.75 84.25H93.25V96.625H34.75V84.25Z" fill="#C3C6C7"/>
<path d="M50.5 41.5H77.5V89.875H50.5V41.5Z" fill="#35A872"/>
<path d="M64 77.5C70.2132 77.5 75.25 72.4632 75.25 66.25C75.25 60.0368 70.2132 55 64 55C57.7868 55 52.75 60.0368 52.75 66.25C52.75 72.4632 57.7868 77.5 64 77.5Z" fill="#3DC285"/>
<path d="M71.875 66.25C71.875 66.5484 71.7565 66.8345 71.5455 67.0455C71.3345 67.2565 71.0484 67.375 70.75 67.375H69.625V68.5C69.625 68.7984 69.5065 69.0845 69.2955 69.2955C69.0845 69.5065 68.7984 69.625 68.5 69.625C68.2016 69.625 67.9155 69.5065 67.7045 69.2955C67.4935 69.0845 67.375 68.7984 67.375 68.5V66.25C67.375 65.9516 67.2565 65.6655 67.0455 65.4545C66.8345 65.2435 66.5484 65.125 66.25 65.125C65.9516 65.125 65.6655 65.2435 65.4545 65.4545C65.2435 65.6655 65.125 65.9516 65.125 66.25C65.1243 67.0456 64.8426 67.8154 64.3295 68.4235C63.8164 69.0316 63.105 69.4389 62.3208 69.5734C61.5366 69.708 60.7302 69.5612 60.0437 69.159C59.3572 68.7567 58.835 68.1249 58.5691 67.375H57.25C56.9516 67.375 56.6655 67.2565 56.4545 67.0455C56.2435 66.8345 56.125 66.5484 56.125 66.25C56.125 65.9516 56.2435 65.6655 56.4545 65.4545C56.6655 65.2435 56.9516 65.125 57.25 65.125H58.375V64C58.375 63.7016 58.4935 63.4155 58.7045 63.2045C58.9155 62.9935 59.2016 62.875 59.5 62.875C59.7984 62.875 60.0845 62.9935 60.2955 63.2045C60.5065 63.4155 60.625 63.7016 60.625 64V66.25C60.625 66.5484 60.7435 66.8345 60.9545 67.0455C61.1655 67.2565 61.4516 67.375 61.75 67.375C62.0484 67.375 62.3345 67.2565 62.5455 67.0455C62.7565 66.8345 62.875 66.5484 62.875 66.25C62.8757 65.4544 63.1574 64.6846 63.6705 64.0765C64.1836 63.4684 64.895 63.0611 65.6792 62.9266C66.4634 62.792 67.2699 62.9388 67.9563 63.341C68.6428 63.7433 69.165 64.3751 69.4309 65.125H70.75C71.0484 65.125 71.3345 65.2435 71.5455 65.4545C71.7565 65.6655 71.875 65.9516 71.875 66.25Z" fill="#35A872"/>
<path d="M77.5 51.625C74.8148 51.6248 72.2395 50.558 70.3408 48.6592C68.442 46.7605 67.3752 44.1852 67.375 41.5H77.5V51.625Z" fill="#3DC285"/>
<path d="M77.5 89.875H67.375C67.3752 87.1898 68.442 84.6145 70.3408 82.7158C72.2395 80.817 74.8148 79.7502 77.5 79.75V89.875Z" fill="#3DC285"/>
<path d="M60.625 89.875H50.5V79.75C53.1852 79.7502 55.7605 80.817 57.6592 82.7158C59.558 84.6145 60.6248 87.1898 60.625 89.875Z" fill="#3DC285"/>
<path d="M70.75 37H44.875V31.375H70.75V37Z" fill="#2D85CC"/>
<path d="M92.125 70.75L87.625 78.625L83.125 70.75H85.375V55H89.875V70.75H92.125Z" fill="#35A872"/>
<path d="M93.25 91V93.25H82C81.7016 93.25 81.4155 93.1315 81.2045 92.9205C80.9935 92.7095 80.875 92.4234 80.875 92.125V89.875H47.125V92.125C47.125 92.4234 47.0065 92.7095 46.7955 92.9205C46.5845 93.1315 46.2984 93.25 46 93.25H34.75V91H44.875V88.75C44.875 88.4516 44.9935 88.1655 45.2045 87.9545C45.4155 87.7435 45.7016 87.625 46 87.625H82C82.2984 87.625 82.5845 87.7435 82.7955 87.9545C83.0065 88.1655 83.125 88.4516 83.125 88.75V91H93.25Z" fill="#9AA3A8"/>
<path d="M46 37V41.5L43.75 55L52.0068 65.428C52.3545 65.8672 52.8443 66.1715 53.392 66.2888C53.9397 66.4061 54.5111 66.329 55.0082 66.0707C55.5161 65.8068 55.9136 65.3707 56.1294 64.8405C56.3452 64.3104 56.3653 63.7207 56.1862 63.1771L52.75 52.75C55.1369 52.75 57.4261 51.8018 59.114 50.114C60.8018 48.4261 61.75 46.1369 61.75 43.75V41.5H69.625V37H46Z" fill="#F0C6A4"/>
</g>
<defs>
<clipPath id="clip0">
<rect width="128" height="128" fill="white"/>
</clipPath>
</defs>
</svg>
