<svg width="128" height="149" viewBox="0 0 128 149" fill="none" xmlns="http://www.w3.org/2000/svg">
<path d="M7.5 139.971V26.9191L120.5 9.26287V48.4999V125.405L7.5 139.971Z" stroke="#C12B2C" stroke-width="15"/>
<path d="M16.9297 100.367H19.7617C21.3433 100.367 22.8669 100.778 23.8633 101.363L48.0042 121.89C50.2892 123.297 52.8672 124 55.5039 124H90.3672C93.6036 124 96.2266 121.181 96.2266 117.945C96.2266 114.709 93.6036 112.086 90.3672 112.086H64C61.6562 112.086 59.4292 111.148 57.7889 109.508L41.9099 93.6289C40.7967 92.5158 40.7967 90.6405 41.9099 89.5273C43.023 88.4142 44.7228 88.3555 45.8947 89.4099L61.0116 104.527C62.9944 106.513 66.5169 107.146 69.2734 104.527C71.5584 102.242 71.5584 98.4919 69.2734 96.2069L48.4727 75.3474C45.6246 72.4993 41.9106 71.0703 38.16 71.0703H16.9297C15.2886 71.0703 14 72.3589 14 74V97.4375C14 99.0778 15.2886 100.367 16.9297 100.367Z" fill="white"/>
<path d="M85.9727 106.227C88.3996 106.227 90.3672 104.259 90.3672 101.832C90.3672 99.4051 88.3996 97.4375 85.9727 97.4375H76.4344C76.6778 98.3874 76.8464 99.3601 76.8464 100.367C76.8464 102.458 76.3055 104.467 75.2923 106.227H85.9727Z" fill="white"/>
<path d="M80.1133 82.7891H64.1671L72.931 91.5781H80.1133C82.5402 91.5781 84.5078 89.6105 84.5078 87.1836C84.5078 84.7567 82.5402 82.7891 80.1133 82.7891Z" fill="white"/>
<path d="M111.07 47.6328H108.238C106.657 47.6328 105.133 47.2224 104.137 46.6372L79.9958 26.3048C77.7108 24.8987 75.1328 24 72.4961 24H37.6328C34.3964 24 31.7734 26.8191 31.7734 30.0547C31.7734 33.2911 34.3964 35.9141 37.6328 35.9141H64C66.3438 35.9141 68.5708 36.8517 70.2111 38.492L86.0901 54.3711C87.2033 55.4842 87.2033 57.3595 86.0901 58.4727C84.977 59.5858 83.2772 59.6445 82.1053 58.5901L66.9884 43.4725C65.0056 41.4873 61.4831 40.8541 58.7266 43.4725C56.4416 45.7575 56.4416 49.5081 58.7266 51.7931L79.5273 72.6526C82.3754 75.4999 86.0894 76.9297 89.84 76.9297H111.07C112.711 76.9297 114 75.6411 114 74V50.5625C114 48.9222 112.711 47.6328 111.07 47.6328Z" fill="white"/>
<path d="M42.0273 41.7734C39.6004 41.7734 37.6328 43.7411 37.6328 46.168C37.6328 48.5949 39.6004 50.5625 42.0273 50.5625H51.5656C51.3222 49.6126 51.1536 48.6399 51.1536 47.6328C51.1536 45.5416 51.6945 43.5328 52.7077 41.7734H42.0273Z" fill="white"/>
<path d="M43.4922 60.8164C43.4922 63.2433 45.4598 65.2109 47.8867 65.2109H63.8329L55.069 56.4219H47.8867C45.4598 56.4219 43.4922 58.3895 43.4922 60.8164Z" fill="white"/>
</svg>
