<svg width="128" height="128" viewBox="0 0 128 128" fill="none" xmlns="http://www.w3.org/2000/svg">
<path d="M64.25 0C29.0755 0 0 28.575 0 63.75C0 98.925 29.0755 128 64.25 128C99.4245 128 128 98.925 128 63.75C128 28.575 99.4245 0 64.25 0Z" fill="#B92E2E"/>
<path d="M128 63.75C128 98.925 99.4245 128 64.25 128V0C99.4245 0 128 28.575 128 63.75Z" fill="#911414"/>
<path d="M64.25 15C37.3995 15 15 36.8997 15 63.75C15 90.6003 37.3995 113 64.25 113C91.1005 113 113 90.6003 113 63.75C113 36.8997 91.1005 15 64.25 15Z" fill="#E44242"/>
<path d="M113 63.75C113 90.6003 91.1005 113 64.25 113V15C91.1005 15 113 36.8997 113 63.75Z" fill="#CD1A1A"/>
<path d="M86.75 85.25C80.5245 92.4502 72.1252 95.2252 64.25 93.9502C55.4755 92.5252 46.95 86.225 43.125 75.5H37.5C32.5508 75.5 32.5508 68 37.5 68H41.5502C41.175 64.0997 41.175 63.9002 41.5502 60H37.5C35.3997 60 33.75 58.3502 33.75 56.25C33.75 54.1497 35.3997 52.5 37.5 52.5H43.125C46.95 41.7 55.6247 35.7 64.25 34.3502C72.3505 33.075 80.8997 35.925 86.75 42.7502C89.9745 46.5002 84.3495 51.375 81.05 47.625C76.6995 42.525 70.2505 40.4252 64.25 41.9255C59.3747 43.05 54.3 46.425 51.3747 52.5H68C72.9492 52.5 72.9492 60 68 60H49.0502C48.675 63.0002 48.675 64.9997 49.0502 68H68C72.9492 68 72.9492 75.5 68 75.5H51.3747C54.2997 81.5 59.3747 84.95 64.25 86.0747C70.2502 87.5747 76.6992 85.475 81.05 80.3752C84.3495 76.6252 89.9745 81.5 86.75 85.25Z" fill="#FF9696"/>
<path d="M68 75.5H64.25V68H68C72.9493 68 72.9493 75.5 68 75.5Z" fill="#E67E7E"/>
<path d="M68 60H64.25V52.5H68C72.9493 52.5 72.9493 60 68 60Z" fill="#E67E7E"/>
<path d="M86.75 85.2499C80.5245 92.4502 72.1252 95.2252 64.25 93.9502V86.0749C70.2502 87.5749 76.6992 85.4752 81.05 80.3755C84.3495 76.6252 89.9745 81.4999 86.75 85.2499Z" fill="#E67E7E"/>
<path d="M64.25 41.9252V34.3502C72.3505 33.075 80.8997 35.925 86.75 42.7502C89.9745 46.5002 84.3495 51.375 81.05 47.625C76.6992 42.5247 70.2502 40.425 64.25 41.9252Z" fill="#E67E7E"/>
</svg>
