<svg width="128" height="149" viewBox="0 0 128 149" fill="none" xmlns="http://www.w3.org/2000/svg">
<path d="M7.5 139.971V26.9191L120.5 9.26287V48.4999V125.405L7.5 139.971Z" stroke="#C12B2C" stroke-width="15"/>
<path d="M107.138 138L49.7357 137.69C48.644 137.684 47.5989 137.245 46.8293 136.471C44.6639 134.292 43.1282 131.82 42.265 129.122C39.8753 121.654 43.2905 114.845 45.331 110.777C47.9633 105.529 47.907 104.258 44.8693 89.7691C34.6732 41.1352 33.4208 28.9432 40.9083 12.4245C41.6722 10.7393 43.4637 9.76851 45.2928 10.0477L83.4352 15.8774C85.6365 16.2139 87.1743 18.2351 86.9116 20.4464L78.684 89.6718C77.5088 99.8607 84.6073 109.191 94.7467 110.786L109.156 113.053C115.298 114.019 119.756 119.233 119.756 125.45C119.756 132.411 114.104 138.037 107.138 138ZM25.5019 15.0808L22.4051 13.0162C20.5076 11.7515 17.9442 12.264 16.6792 14.1615C15.4144 16.0588 15.9269 18.6224 17.8245 19.8875C21.098 22.0699 21.6487 22.6456 23.2077 22.6456C27.2732 22.6456 28.8988 17.3453 25.5019 15.0808ZM20.889 47.4195C20.889 45.1393 19.0402 43.2905 16.76 43.2905H12.3729C10.0926 43.2905 8.24387 45.1393 8.24387 47.4195C8.24387 49.6998 10.0926 51.5486 12.3729 51.5486H16.76C19.0405 51.5486 20.889 49.6998 20.889 47.4195ZM30.4361 76.4502C32.2167 75.0257 32.5055 72.4272 31.081 70.6466C29.6562 68.8659 27.058 68.5772 25.2774 70.0017L22.6967 72.0662C19.6449 74.5077 21.4023 79.4197 25.2787 79.4197C27.0642 79.4195 27.77 78.5831 30.4361 76.4502Z" fill="white"/>
</svg>
