<svg width="128" height="149" viewBox="0 0 128 149" fill="none" xmlns="http://www.w3.org/2000/svg">
<path d="M7.5 139.971V26.9191L120.5 9.26287V48.4999V125.405L7.5 139.971Z" stroke="#C12B2C" stroke-width="15"/>
<path d="M117.767 115.297L61.6211 95.1456L66.2109 65.0584L107.505 71.3262C110.956 71.8413 114.291 69.6096 115.06 66.1509C115.865 62.5342 113.586 58.95 109.969 58.1453C109.969 58.1453 70.6048 49.258 60.6132 46.0871C57.3844 45.0626 34.0043 37.859 25.9091 46.2079L8.25622 64.8196L7.57333 65.5377C7.27772 65.8536 7.01018 66.204 6.77714 66.5875C4.9507 69.592 5.90552 73.5084 8.91002 75.3349L24.818 85.0058C27.0496 86.3655 30.0007 85.934 31.7368 83.8738C33.6542 81.5982 33.3644 78.1993 31.0888 76.2819L23.5222 69.9056L28.5923 65.7809L28.0863 69.6384L28.1908 69.7375L33.5977 73.9907C35.3893 75.5002 36.4855 77.6172 36.6848 79.9513C36.884 82.2851 36.1625 84.5574 34.653 86.3486C32.9832 88.33 30.5763 89.3646 27.9446 89.2378C27.4694 89.2148 26.0336 88.9141 25.5682 88.838L23.671 98.3994L8.00931 111.696C6.83599 112.698 5.9089 114.02 5.37653 115.587C3.797 120.234 6.284 125.282 10.9309 126.861L42.4604 137.577C46.4555 138.925 50.8853 136.957 52.5017 133C54.1831 128.885 52.2099 124.186 48.0946 122.505L32.6639 116.201C32.6639 116.201 41.7673 109.665 41.9179 109.544L112.756 130.588C116.815 131.785 121.176 129.626 122.624 125.592C124.125 121.408 121.95 116.799 117.767 115.297Z" fill="white"/>
<path d="M54.1645 41.7902C62.9431 41.7902 70.0596 34.6737 70.0596 25.8951C70.0596 17.1165 62.9431 10 54.1645 10C45.3859 10 38.2694 17.1165 38.2694 25.8951C38.2694 34.6737 45.3859 41.7902 54.1645 41.7902Z" fill="white"/>
</svg>
