<svg width="128" height="149" viewBox="0 0 128 149" fill="none" xmlns="http://www.w3.org/2000/svg">
<path d="M7.5 139.971V26.9191L120.5 9.26287V48.4999V125.405L7.5 139.971Z" stroke="#C12B2C" stroke-width="15"/>
<path d="M126.958 92.4775L59.5724 55.2996C60.6306 53.964 61.4063 52.4271 61.8538 50.7837L65.034 52.2776C65.46 52.4838 65.9261 52.5932 66.3999 52.5971C67.5089 52.5854 68.5338 52.005 69.1141 51.0602C69.6945 50.1155 69.7502 48.9391 69.2597 47.9445L58.2466 25.9398C57.5207 24.4889 55.8246 23.8099 54.2984 24.36L34.1286 31.7024C32.9083 32.1401 32.073 33.2705 32.0114 34.5651C31.9508 35.8606 32.6768 37.0643 33.8512 37.6144L39.0372 40.0472C38.3836 40.9978 37.8589 42.0315 37.4789 43.1209L3.16558 24.1783C2.1397 23.6555 0.884212 24.0405 0.327305 25.0488C-0.228625 26.0571 0.114312 27.3243 1.10307 27.9134L18.8186 37.6916C17.4195 38.4937 16.3144 39.7238 15.6657 41.2001L10.7571 53.2801L10.6506 53.5155C9.38437 56.5414 9.45472 59.962 10.845 62.9331C12.2353 65.9043 14.8157 68.1505 17.95 69.1177L31.8658 73.3864L28.6221 87.9421L21.9197 86.8967H21.8347C18.6017 86.3691 15.3257 87.5484 13.1713 90.0154C11.017 92.4824 10.2891 95.8874 11.2476 99.0197L17.1606 118.934C17.2602 119.287 17.396 119.631 17.566 119.957H2.13481C0.955535 119.957 0 120.913 0 122.092C0 123.271 0.955535 124.226 2.13481 124.226H108.852C110.031 124.226 110.987 123.271 110.987 122.092C110.987 120.913 110.031 119.957 108.852 119.957H99.5672C99.6668 119.805 99.7459 119.64 99.8026 119.467C101.284 115.618 99.3893 111.295 95.5555 109.777L70.9245 100.343L53.7855 93.6412L56.8377 83.482L60.9354 86.4053C63.6056 88.3418 67.034 88.9026 70.182 87.9197C73.33 86.9358 75.8292 84.5235 76.9225 81.4117L79.6328 73.7918C79.8937 73.0444 80.0324 72.2589 80.0422 71.4675L124.896 96.2127C125.922 96.7364 127.177 96.3505 127.734 95.3431C128.29 94.3349 127.947 93.0676 126.958 92.4775ZM37.9918 34.8396L54.8534 28.6931L64.0736 47.1121L61.0214 45.6817L43.5198 37.4434L43.3274 37.3369L37.9918 34.8396ZM80.4008 119.957H31.0549C31.8512 118.285 31.9958 116.375 31.4604 114.6L28.0877 103.139L37.6928 104.782C41.9107 105.508 46.0435 106.66 50.0288 108.218L80.4008 119.957ZM65.5675 68.7758L64.8416 70.8246L60.1674 67.4529H60.146C57.6887 65.6795 54.9345 64.3566 52.0141 63.5467L37.3509 59.449L25.8473 55.9053L29.177 47.539C29.7007 46.3549 29.9274 45.0593 29.8365 43.7677L36.7109 47.5644C36.7705 52.1653 39.2952 56.3812 43.3244 58.6039C47.3527 60.8266 52.2652 60.7143 56.189 58.3108L68.4888 65.1051C67.1444 65.9805 66.1195 67.2682 65.5675 68.7758Z" fill="white"/>
<path d="M121.658 119.958H117.389C116.211 119.958 115.255 120.913 115.255 122.092C115.255 123.271 116.211 124.226 117.389 124.226H121.658C122.837 124.226 123.793 123.271 123.793 122.092C123.793 120.913 122.837 119.958 121.658 119.958Z" fill="white"/>
</svg>
